<svg xmlns="http://www.w3.org/2000/svg" xmlns:xlink="http://www.w3.org/1999/xlink" viewBox="0 0 206.05 181.41">
  <defs>
    <style>
      .cls-1 {
        fill: url(#linear-gradient);
      }

      .cls-2 {
        fill: url(#linear-gradient-2);
      }

      .cls-3 {
        fill: url(#linear-gradient-3);
      }

      .cls-4 {
        fill: url(#linear-gradient-5);
      }

      .cls-5 {
        fill: url(#linear-gradient-6);
      }

      .cls-6 {
        fill-rule: evenodd;
        fill: url(#linear-gradient-7);
      }
    </style>
    <linearGradient id="linear-gradient" x1="136.2" y1="152.72" x2="90.49" y2="107.01" gradientUnits="userSpaceOnUse">
      <stop offset="0" stop-color="#5f4daa"/>
      <stop offset="0.26" stop-color="#7e469c"/>
      <stop offset="0.56" stop-color="#9f3f8e"/>
      <stop offset="0.66" stop-color="#914d9a"/>
      <stop offset="1" stop-color="#6477c0"/>
    </linearGradient>
    <linearGradient id="linear-gradient-2" x1="69.38" y1="76.52" x2="116.98" y2="124.12" xlink:href="#linear-gradient"/>
    <linearGradient id="linear-gradient-3" x1="69.03" y1="54.01" x2="137.31" y2="172.27" gradientUnits="userSpaceOnUse">
      <stop offset="0.01" stop-color="#45a1ae"/>
      <stop offset="0.16" stop-color="#5372ac"/>
      <stop offset="0.27" stop-color="#5f4daa"/>
      <stop offset="0.39" stop-color="#634ca8"/>
      <stop offset="0.51" stop-color="#7149a2"/>
      <stop offset="0.64" stop-color="#874499"/>
      <stop offset="0.75" stop-color="#9f3f8e"/>
      <stop offset="0.81" stop-color="#914d9a"/>
      <stop offset="1" stop-color="#6477c0"/>
    </linearGradient>
    <linearGradient id="linear-gradient-5" x1="52.26" y1="70.41" x2="154.11" y2="155.87" xlink:href="#linear-gradient-3"/>
    <linearGradient id="linear-gradient-6" x1="45.99" y1="92.31" x2="160.38" y2="133.95" xlink:href="#linear-gradient-3"/>
    <linearGradient id="linear-gradient-7" x1="0" y1="79.24" x2="206.05" y2="79.24" xlink:href="#linear-gradient-3"/>
  </defs>
  <g id="Layer_2" data-name="Layer 2">
    <g id="Layer_1-2" data-name="Layer 1">
      <g>
        <path class="cls-1" d="M81.05,120.67a10.16,10.16,0,1,0,8.73,15.27H153a55.6,55.6,0,0,0,3.43-10.62H89.58A10.17,10.17,0,0,0,81.05,120.67Z"/>
        <path class="cls-2" d="M126.94,109.94a10.16,10.16,0,1,0,0-20.32c-3.77,0-7,1.35-8.77,4.4H51.88a56,56,0,0,0-2.68,11h69.09A10.09,10.09,0,0,0,126.94,109.94Z"/>
        <path class="cls-3" d="M103.18,44.86a68.28,68.28,0,1,0,68.34,68.34A68.4,68.4,0,0,0,103.18,44.86Zm0,122.76c-32.16,0-54.55-24.46-54.55-54.43A59.19,59.19,0,0,1,49.2,105a56,56,0,0,1,2.68-11c7.39-20.82,26.75-35.38,51.3-35.38,32.16,0,54.54,24.46,54.54,54.55a57.57,57.57,0,0,1-1.3,12.13A55.6,55.6,0,0,1,153,135.94C144.75,154.61,126.41,167.62,103.18,167.62Z"/>
        <path class="cls-3" d="M103.18,44.86a68.28,68.28,0,1,0,68.34,68.34A68.4,68.4,0,0,0,103.18,44.86Zm0,122.76c-32.16,0-54.55-24.46-54.55-54.43A59.19,59.19,0,0,1,49.2,105a56,56,0,0,1,2.68-11c7.39-20.82,26.75-35.38,51.3-35.38,32.16,0,54.54,24.46,54.54,54.55a57.57,57.57,0,0,1-1.3,12.13A55.6,55.6,0,0,1,153,135.94C144.75,154.61,126.41,167.62,103.18,167.62Z"/>
      </g>
      <g>
        <path class="cls-4" d="M103.18,46.66a66.47,66.47,0,1,0,66.53,66.54A66.6,66.6,0,0,0,103.18,46.66Zm0,129a62.52,62.52,0,1,1,62.57-62.46A62.61,62.61,0,0,1,103.18,175.65Z"/>
        <path class="cls-5" d="M103.18,52.32a60.82,60.82,0,1,0,60.87,60.87A60.93,60.93,0,0,0,103.18,52.32Zm0,117.4a56.59,56.59,0,1,1,56.64-56.53A56.68,56.68,0,0,1,103.18,169.72Z"/>
      </g>
      <path class="cls-6" d="M206,94.3c-3.37-1.33-8.47-1.86-11.55-2.56.06-9,.37-18.34-1.92-25l3.21-2.57C184,28.15,159,0,103,0s-81,28.15-92.73,64.14l3.21,2.57c-2.29,6.69-2,16-1.92,25C8.5,92.44,3.4,93,0,94.3c-.26,17,1.46,37.42,6.41,51.34,3.5-.14,7.49-.29,10.27-.64,1.07,4.55,2.07,9.06,4.49,12.19,4.17,3.23,18.19,0,19.25-5.13-12-17.34-14.61-52.37-5.77-69.95-2.59-5.62-11-6.16-15.4-1.93-.45-3.5.6-9.28,1.28-12.19l4.4-.07c10.31-30.77,37.08-50,78.06-50s67.75,19.21,78.06,50l4.41.07c.67,2.91,1.73,8.69,1.28,12.19-4.42-4.23-12.81-3.69-15.4,1.93,8.84,17.58,6.27,52.61-5.77,70,1.06,5.09,15.08,8.36,19.25,5.13,2.42-3.13,3.42-7.64,4.49-12.19,2.78.35,6.77.5,10.27.64C204.56,131.72,206.28,111.32,206,94.3Z"/>
    </g>
  </g>
</svg>
