<svg xmlns="http://www.w3.org/2000/svg" xmlns:xlink="http://www.w3.org/1999/xlink" viewBox="0 0 195.05 194.86">
  <defs>
    <style>
      .cls-1 {
        fill: url(#linear-gradient);
      }

      .cls-2 {
        fill: url(#linear-gradient-2);
      }

      .cls-3 {
        fill: url(#linear-gradient-3);
      }

      .cls-4 {
        fill: url(#linear-gradient-4);
      }

      .cls-5 {
        fill: url(#linear-gradient-5);
      }
    </style>
    <linearGradient id="linear-gradient" x1="144.66" y1="153.93" x2="79.43" y2="88.7" gradientUnits="userSpaceOnUse">
      <stop offset="0.04" stop-color="#008fa3"/>
      <stop offset="0.59" stop-color="#1aa1c6"/>
      <stop offset="0.67" stop-color="#1ea4cb"/>
      <stop offset="1" stop-color="#b8d7dc"/>
    </linearGradient>
    <linearGradient id="linear-gradient-2" x1="49.3" y1="45.19" x2="117.22" y2="113.11" xlink:href="#linear-gradient"/>
    <linearGradient id="linear-gradient-3" x1="48.8" y1="13.06" x2="146.24" y2="181.82" gradientUnits="userSpaceOnUse">
      <stop offset="0.01" stop-color="#b8d7dc"/>
      <stop offset="0.07" stop-color="#86bfdb"/>
      <stop offset="0.1" stop-color="#6fb4da"/>
      <stop offset="0.11" stop-color="#67b2d8"/>
      <stop offset="0.2" stop-color="#3fabd1"/>
      <stop offset="0.28" stop-color="#27a6cd"/>
      <stop offset="0.32" stop-color="#1ea4cb"/>
      <stop offset="0.36" stop-color="#18a0c3"/>
      <stop offset="0.49" stop-color="#0693ac"/>
      <stop offset="0.57" stop-color="#008fa3"/>
      <stop offset="0.61" stop-color="#0993a6"/>
      <stop offset="0.67" stop-color="#209daf"/>
      <stop offset="0.75" stop-color="#46adbd"/>
      <stop offset="0.84" stop-color="#7bc4d1"/>
      <stop offset="0.87" stop-color="#90cdd9"/>
      <stop offset="0.9" stop-color="#76c4d6"/>
      <stop offset="0.96" stop-color="#34acce"/>
      <stop offset="0.98" stop-color="#1ea4cb"/>
    </linearGradient>
    <linearGradient id="linear-gradient-4" x1="24.86" y1="36.46" x2="170.21" y2="158.42" xlink:href="#linear-gradient-3"/>
    <linearGradient id="linear-gradient-5" x1="15.91" y1="67.72" x2="179.17" y2="127.15" xlink:href="#linear-gradient-3"/>
  </defs>
  <g id="Layer_2" data-name="Layer 2">
    <g id="Layer_1-2" data-name="Layer 1">
      <g>
        <path class="cls-1" d="M66,108.19A14.49,14.49,0,1,0,78.41,130h90.2a78.2,78.2,0,0,0,4.9-15.15H78.12A14.48,14.48,0,0,0,66,108.19Z"/>
        <path class="cls-2" d="M131.45,92.87a14.5,14.5,0,1,0,0-29c-5.39,0-10,1.93-12.52,6.28H24.33A79.24,79.24,0,0,0,20.5,85.85h98.59A14.42,14.42,0,0,0,131.45,92.87Z"/>
        <path class="cls-3" d="M97.54,0A97.62,97.62,0,0,0,0,97.53c0,53.59,43.74,97.33,97.54,97.33s97.51-43.74,97.51-97.33A97.6,97.6,0,0,0,97.54,0Zm0,175.19c-45.9,0-77.84-34.91-77.84-77.68a84.34,84.34,0,0,1,.81-11.66,79.24,79.24,0,0,1,3.83-15.69C34.87,40.44,62.5,19.67,97.53,19.67c45.9,0,77.83,34.9,77.83,77.84a82.21,82.21,0,0,1-1.85,17.32,78.2,78.2,0,0,1-4.9,15.15C156.86,156.62,130.69,175.19,97.53,175.19Z"/>
      </g>
      <g>
        <path class="cls-4" d="M97.54,2.57a95.05,95.05,0,0,0-95,95c0,52.17,42.59,94.76,95,94.76s94.94-42.59,94.94-94.76A95,95,0,0,0,97.54,2.57Zm0,184.07c-49.26,0-89.31-40-89.31-89.12a89.3,89.3,0,1,1,178.6,0C186.83,146.59,146.79,186.64,97.54,186.64Z"/>
        <path class="cls-5" d="M97.54,10.64A87,87,0,0,0,10.65,97.52c0,47.74,39,86.7,86.89,86.7a86.79,86.79,0,1,0,0-173.58Zm0,167.54a80.75,80.75,0,1,1,80.83-80.67A80.88,80.88,0,0,1,97.53,178.18Z"/>
      </g>
    </g>
  </g>
</svg>
