<svg xmlns="http://www.w3.org/2000/svg" height="800" width="1200" preserveAspectRatio="xMidYMid" viewBox="-38.40015 -38.0965 332.8013 228.579"><path fill="#9B5C8F" d="M23.758 0h208.38C245.325 0 256 10.675 256 23.863v79.542c0 13.187-10.675 23.863-23.863 23.863H157.41l10.257 25.118-45.11-25.118H23.865C10.677 127.268 0 116.593 0 103.405V23.863C-.104 10.78 10.57 0 23.759 0z"/><path fill="#fff" d="M14.577 21.75c1.457-1.977 3.642-3.018 6.556-3.226 5.307-.416 8.325 2.081 9.054 7.493 3.226 21.75 6.764 40.169 10.51 55.259l22.79-43.395c2.082-3.955 4.683-6.036 7.805-6.244 4.58-.312 7.39 2.601 8.534 8.741 2.601 13.841 5.931 25.6 9.886 35.59 2.706-26.433 7.285-45.476 13.737-57.236 1.561-2.913 3.85-4.37 6.868-4.579 2.394-.208 4.58.52 6.556 2.082 1.978 1.56 3.018 3.538 3.226 5.931.104 1.874-.208 3.434-1.04 4.995-4.059 7.493-7.389 20.085-10.094 37.567-2.602 16.964-3.539 30.18-2.914 39.65.208 2.601-.208 4.89-1.249 6.868-1.249 2.29-3.122 3.538-5.515 3.746-2.706.208-5.516-1.04-8.221-3.85-9.678-9.886-17.38-24.663-22.998-44.332-6.765 13.32-11.76 23.31-14.985 29.97-6.14 11.76-11.343 17.796-15.714 18.108-2.81.208-5.204-2.186-7.285-7.18-5.307-13.634-11.031-39.962-17.171-78.986-.416-2.705.208-5.099 1.665-6.972zm223.64 16.338c-3.747-6.556-9.262-10.511-16.65-12.072-1.977-.416-3.85-.624-5.62-.624-9.99 0-18.107 5.203-24.455 15.61-5.411 8.845-8.117 18.628-8.117 29.346 0 8.013 1.665 14.88 4.995 20.605 3.747 6.556 9.262 10.51 16.65 12.072 1.977.416 3.85.624 5.62.624 10.094 0 18.21-5.203 24.455-15.61 5.411-8.95 8.117-18.732 8.117-29.45.104-8.117-1.665-14.881-4.995-20.501zm-13.112 28.826c-1.457 6.868-4.059 11.967-7.91 15.402-3.017 2.706-5.827 3.85-8.428 3.33-2.498-.52-4.58-2.706-6.14-6.764-1.249-3.226-1.873-6.452-1.873-9.47 0-2.602.208-5.203.728-7.597.937-4.266 2.706-8.429 5.515-12.384 3.435-5.099 7.077-7.18 10.823-6.452 2.498.52 4.58 2.706 6.14 6.765 1.249 3.226 1.873 6.452 1.873 9.47 0 2.705-.208 5.307-.728 7.7zm-52.033-28.826c-3.747-6.556-9.366-10.511-16.65-12.072-1.977-.416-3.85-.624-5.62-.624-9.99 0-18.107 5.203-24.455 15.61-5.411 8.845-8.117 18.628-8.117 29.346 0 8.013 1.665 14.88 4.995 20.605 3.747 6.556 9.262 10.51 16.65 12.072 1.977.416 3.85.624 5.62.624 10.094 0 18.21-5.203 24.455-15.61 5.411-8.95 8.117-18.732 8.117-29.45 0-8.117-1.665-14.881-4.995-20.501zm-13.216 28.826c-1.457 6.868-4.059 11.967-7.91 15.402-3.017 2.706-5.827 3.85-8.428 3.33-2.498-.52-4.58-2.706-6.14-6.764-1.249-3.226-1.873-6.452-1.873-9.47 0-2.602.208-5.203.728-7.597.937-4.266 2.706-8.429 5.515-12.384 3.435-5.099 7.077-7.18 10.823-6.452 2.498.52 4.58 2.706 6.14 6.765 1.249 3.226 1.873 6.452 1.873 9.47.104 2.705-.208 5.307-.728 7.7z"/></svg>