<?xml version="1.0" encoding="UTF-8"?>
<svg width="77px" height="60px" viewBox="0 0 77 60" version="1.1" xmlns="http://www.w3.org/2000/svg" xmlns:xlink="http://www.w3.org/1999/xlink">
    <title>说明</title>
    <defs>
        <linearGradient x1="0.00160175861%" y1="49.997036%" x2="100.002408%" y2="49.997036%" id="linearGradient-1">
            <stop stop-color="#4721AB" offset="0%"></stop>
            <stop stop-color="#A553FF" offset="100%"></stop>
        </linearGradient>
        <linearGradient x1="0.00160175861%" y1="49.997036%" x2="100.002408%" y2="49.997036%" id="linearGradient-2">
            <stop stop-color="#4721AB" offset="0%"></stop>
            <stop stop-color="#A553FF" offset="100%"></stop>
        </linearGradient>
    </defs>
    <g id="兑换+订单（深浅色）" stroke="none" stroke-width="1" fill="none" fill-rule="evenodd">
        <g id="swap兑换改" transform="translate(-149.000000, -1165.000000)">
            <g id="编组-7备份-4" transform="translate(15.000000, 887.000000)">
                <g id="庆祝" transform="translate(134.000000, 278.000000)">
                    <g id="编组-7" transform="translate(0.000000, 6.000000)">
                        <g id="资源-2" transform="translate(15.818182, 0.000000)" fill-rule="nonzero">
                            <path d="M21.546543,44.6238844 C10.805356,44.6238844 2.02540028,37.2522624 1.556825,27.8523913 C1.31935699,23.0861112 3.23182259,18.4925376 6.94014002,14.9457343 C10.5933309,11.4536917 15.5631972,9.39595604 20.9380312,9.12215294 C21.3196762,9.10319734 21.707682,9.09477263 22.0914473,9.09477263 C32.8326343,9.09477263 41.6147102,16.4663946 42.0811652,25.8641595 C42.2261999,28.9083609 41.497517,31.9308402 39.9799974,34.5795229 C40.6351547,34.6469206 41.3348372,34.876494 41.6655962,35.6768415 C41.8776212,36.1738994 41.9285072,36.9531852 41.0443629,37.8335675 C36.3077242,42.5387685 25.9418215,44.4364346 22.699959,44.5943979 C22.318314,44.6133535 21.9303083,44.6238844 21.546543,44.6238844 Z" id="路径" fill="url(#linearGradient-1)"></path>
                            <path d="M31.6560132,1.72687997 C31.832902,2.84110188 31.0590376,3.88556439 29.9275387,4.05975228 C29.759343,4.08457064 29.5887384,4.0895118 29.4193522,4.07447072 C28.7270501,4.00683376 28.0282728,4.04585017 27.3481721,4.19011559 C27.0165188,4.27192384 26.6928428,4.38239006 26.3809097,4.52022911 C26.0581443,4.66675236 25.7500346,4.8427414 25.4606225,5.04588758 C24.9567328,5.42049982 24.5104106,5.86376618 24.1347937,6.36184168 C24.3130667,6.20304594 24.5050577,6.06013678 24.7090306,5.93473158 C24.9110685,5.81310204 25.1254561,5.71276815 25.3486724,5.63537776 C25.5889505,5.55476301 25.8379933,5.50240209 26.0906568,5.47937647 L26.4317991,5.44564647 C27.1383279,5.37928219 27.7654943,5.89178727 27.8326146,6.5903586 C27.8997348,7.28892993 27.3813918,7.90903276 26.674863,7.97539704 C26.4710677,7.99319344 26.265888,7.96359336 26.0757319,7.88896389 C26.0133455,7.86489422 25.9481683,7.84860639 25.8817072,7.84047701 C25.7968441,7.83432397 25.7115308,7.83928588 25.6279826,7.85523389 L25.4724995,7.89525752 C35.4446981,9.27477757 43.1585253,16.6639024 43.6158751,25.8457119 C43.749745,28.5927182 43.2261395,31.3321525 42.0878352,33.8402121 C42.5288584,34.1823426 42.8731913,34.6316616 43.087428,35.1445779 C43.3378568,35.7504769 43.7474563,37.3346502 42.1345253,38.9314464 C37.1768848,43.8459602 26.7649907,45.9287379 22.777231,46.1243927 C22.3676314,46.1433271 21.9537872,46.1538462 21.5463099,46.1538462 C9.98626363,46.1538462 0.531516737,38.1677612 0.0221701032,27.9726697 C-0.112096132,25.3300623 0.36483154,22.6919994 1.41650651,20.2600809 C2.45473247,17.8696943 3.97083519,15.7126548 5.87328956,13.9191799 C9.79525864,10.1806992 15.1158087,7.96538113 20.8693034,7.67926218 C21.0634986,7.66529801 21.258648,7.6579544 21.4536206,7.65409247 L21.4207537,7.87393018 C21.450647,7.63422991 21.4933518,7.39452965 21.5424622,7.15693202 C21.6427801,6.6762044 21.7783673,6.20327328 21.9481573,5.7418594 C22.2978484,4.77322521 22.8134954,3.87075397 23.4727166,3.07361699 C23.8243643,2.65938738 24.2146864,2.27854497 24.6385561,1.93609205 C25.0750719,1.59280916 25.5424922,1.28947271 26.0350013,1.02985683 C27.0260913,0.534908798 28.091718,0.200506607 29.1908818,0.0395162681 L29.2869675,0.0247978308 C30.4184665,-0.149390065 31.4791243,0.612658067 31.6560132,1.72687997 Z M22.1002244,10.6561616 C21.7415595,10.6561616 21.3807723,10.6645768 21.0199851,10.6835112 C10.6547811,11.1968423 2.61559338,18.8610433 3.06127169,27.8169873 C3.49209405,36.4594628 11.6692298,43.1390781 21.5547991,43.1390781 C21.913464,43.1390781 22.2742512,43.1306628 22.6350384,43.1117285 C26.2025871,42.9413194 35.8058934,40.957421 39.9973918,36.800281 C40.7321041,36.0729618 39.9980655,36.094143 39.1821699,36.0862239 L38.9363325,36.0821976 C38.1179344,36.0606824 37.3563688,35.9323067 38.0385295,34.9194696 C39.8390912,32.2914231 40.7325851,29.1559696 40.5852627,25.9824599 C40.1544403,17.3399845 31.9773045,10.6603692 22.0917353,10.6603692 L22.0917353,10.6603692 Z" id="形状结合" fill="url(#linearGradient-2)"></path>
                            <path d="M24.1249446,30.0892478 L19.8613802,30.0892478 C19.2213439,30.0887704 18.626951,30.4295731 18.2914619,30.9893808 C17.9559728,31.5491884 17.9274907,32.2477345 18.2162346,32.83439 L18.8671764,34.1499943 C19.4624286,35.3606556 20.6705264,36.1240969 21.9910693,36.1240969 C23.3116123,36.1240969 24.51971,35.3606556 25.1149623,34.1499943 L25.7659041,32.8257912 C26.0503336,32.2405378 26.020201,31.5459001 25.6862237,30.9889435 C25.3522464,30.4319869 24.76182,30.0917506 24.1249446,30.0892478 Z" id="路径" fill="#F9E100"></path>
                            <ellipse id="椭圆形" fill="#FFFFFF" cx="30.869952" cy="26.4768381" rx="8.2405266" ry="8.20229494"></ellipse>
                            <ellipse id="椭圆形" fill="#33213A" cx="30.6137698" cy="26.3068423" rx="4.14161181" ry="4.12239694"></ellipse>
                            <ellipse id="椭圆形" fill="#FFFFFF" cx="12.7664117" cy="26.4768381" rx="8.2405266" ry="8.20229494"></ellipse>
                            <path d="M11.3280326,32.4691883 L8.88098203,29.9819338 L12.4130456,26.3918402 L8.88098203,22.8017466 L11.3280326,20.3144921 L15.4603162,24.5146671 C16.4797226,25.5516411 16.4797226,27.2320394 15.4603162,28.2690134 L11.3280326,32.4691883 Z" id="路径" fill="#33213A"></path>
                        </g>
                        <circle id="椭圆形" fill="#9249EE" cx="1.36363636" cy="19.363632" r="1.36363636"></circle>
                        <circle id="椭圆形备份-3" fill="#5729B9" cx="7.90909091" cy="1.90908658" r="1.90909091"></circle>
                        <circle id="椭圆形备份-4" fill="#D41DF7" cx="13.3636364" cy="37.363632" r="1"></circle>
                        <circle id="椭圆形备份-5" fill="#9249EE" cx="74.4545455" cy="7.36363203" r="2.45454545"></circle>
                        <circle id="椭圆形备份-6" fill="#D41DF7" cx="66.2727273" cy="20.9999957" r="1.36363636"></circle>
                        <circle id="椭圆形备份-7" fill="#5729B9" cx="59.1818182" cy="46.6363593" r="1.36363636"></circle>
                    </g>
                </g>
            </g>
        </g>
    </g>
</svg>