<?xml version="1.0" encoding="utf-8"?>
<svg viewBox="0 0 185.744 196.71" xmlns="http://www.w3.org/2000/svg">
  <g stroke="none" stroke-width="1" fill="none" fill-rule="nonzero" transform="matrix(1, 0, 0, 1, 3.6208, -20.22596)">
    <g transform="translate(0, 23.684211)">
      <g transform="translate(225, 76.973684)" fill="#33213A"/>
      <g transform="translate(-0.002581, 0)">
        <path d="M87.5203704,182.932243 C43.8461569,182.932243 8.1319552,152.77523 6.24780348,114.287726 C5.29514249,94.7370061 13.0540369,75.9695847 28.1272507,61.4573824 C42.9464215,47.1674677 63.19576,38.6993701 85.0434518,37.6196876 C86.5994648,37.5455918 88.2189884,37.5032513 89.7326609,37.5032513 C133.406874,37.5032513 169.121076,67.6602639 171.015813,106.147768 C171.606777,118.607664 168.644285,130.978912 162.473619,141.819629 C165.14107,142.094842 167.988468,143.036918 169.322193,146.307721 C170.158418,148.350649 170.380706,151.536771 166.792349,155.135712 C147.538012,174.390049 105.398641,182.159529 92.2201645,182.815806 C90.6535665,182.889902 89.0763833,182.932243 87.5203704,182.932243 Z" fill="#8F47EC"/>
        <path d="M89.7326609,43.6637923 C129.892614,43.6637923 163.108727,71.0369178 164.887027,106.454736 C165.468576,119.461836 161.821745,132.307443 154.492437,143.068673 C148.681205,151.790814 168.718841,144.518835 162.463034,150.785227 C145.431573,167.816689 106.457154,175.946062 91.9343663,176.655265 C90.4630343,176.729361 89.0022875,176.771702 87.5415406,176.771702 C47.3815877,176.771702 14.1654747,149.398576 12.3871742,113.980758 C10.5877035,77.2821398 43.2428049,45.8549126 85.3504204,43.7696435 C86.8217523,43.7061328 88.2824992,43.6637923 89.7326609,43.6637923 M89.7326609,31.3427103 C88.0813818,31.3427103 86.3983474,31.3427103 84.7364833,31.4697317 C61.4492148,32.62351 39.78147,41.6949596 23.8614465,57.0222163 C16.1404513,64.3714818 9.98691016,73.2075204 5.77147299,82.9981057 C1.49478557,92.9598546 -0.449418691,103.767024 0.0872624589,114.594695 C2.15136125,156.363586 40.554184,189.092784 87.5203704,189.092784 C89.1822345,189.092784 90.8652689,189.092784 92.516548,188.965762 C108.72237,188.171878 151.009932,179.629685 171.153419,159.496783 C177.695025,152.944592 176.043746,146.455912 175.027574,143.978994 C174.146716,141.896737 172.747386,140.074693 170.962887,138.686433 C175.596627,128.392991 177.722453,117.147153 177.165769,105.872554 C175.292202,67.8190408 143.293378,37.2703786 102.011402,32.1365944 L89.7326609,31.3427103 Z" fill="#33213A"/>
        <path d="M86.5888796,35.3438864 L86.5888796,34.5076617 L86.6523904,33.745533 C86.6523904,33.2374471 86.7476565,32.7505315 86.8217523,32.2530308 C86.9487738,31.2580293 87.1181357,30.2841981 87.319253,29.3103668 C87.7253555,27.3408455 88.2700808,25.4024721 88.9493618,23.50972 C90.3757677,19.5312454 92.4777385,15.8286256 95.1628285,12.5647038 C96.5812078,10.8694685 98.154621,9.31023018 99.8626226,7.90725011 C101.626784,6.49731818 103.515136,5.25022649 105.504493,4.18128715 C109.49182,2.14645616 113.780748,0.766851008 118.206639,0.0954300522 L118.587704,0.0954300522 C121.777142,-0.389972085 124.961332,1.00263697 126.770143,3.67402882 C128.578954,6.34542067 128.689721,9.81905835 127.054781,12.6002637 C125.419841,15.381469 122.330844,16.9741159 119.11696,16.6929014 C116.321234,16.4168076 113.499501,16.5811111 110.754713,17.179817 C109.438878,17.5025813 108.153319,17.938184 106.912314,18.481787 C105.617335,19.0887861 104.383776,19.8189968 103.228691,20.6623221 C100.762943,22.5108163 98.6417871,24.7788762 96.9622992,27.3627044 C96.0628858,28.7158539 95.2599558,30.1307085 94.5594765,31.5967532 C94.2101675,32.3482969 93.8714436,33.0998405 93.5750602,33.8725544 C93.4268685,34.2536188 93.2892619,34.6452683 93.1516553,35.0263327 L92.8023463,36.0848449 L92.6753248,36.4764944 C92.1912273,37.9610407 90.6789402,38.8541932 89.1451533,38.5614038 C87.6113664,38.2686143 86.5344247,36.8811957 86.6312201,35.3227161 L86.5888796,35.3438864 Z" fill="#33213A"/>
        <path d="M92.347186,34.5182469 L92.5694736,33.9678205 L92.781176,33.4703198 C92.9293677,33.142181 93.0775594,32.8140422 93.2363363,32.4964886 C93.5433048,31.8507961 93.8820287,31.2156888 94.2948485,30.5911666 C95.0411348,29.2908292 95.9095027,28.064481 96.8882034,26.9287144 C97.9835241,25.6498357 99.2687124,24.5467157 100.698847,23.6579117 C101.512893,23.1662493 102.374696,22.7584001 103.271032,22.4406226 C104.245822,22.1137642 105.254173,21.8971817 106.277207,21.7949302 L107.653272,21.6679087 C109.793323,21.4945622 111.820413,22.6523266 112.758379,24.583669 C113.696345,26.5150114 113.352915,28.824031 111.893471,30.3987966 C110.434027,31.9735622 108.157737,32.4912667 106.16077,31.7026044 C105.907472,31.6081987 105.644918,31.5407864 105.377471,31.5014871 C105.023364,31.4797321 104.667925,31.5010584 104.318959,31.5649978 C103.430973,31.7529218 102.582219,32.0931398 101.810285,32.5705844 C100.883864,33.1288696 100.015152,33.7777437 99.2169302,34.5076617 C98.8041104,34.8887261 98.3912907,35.2909608 97.989056,35.7037805 C97.7985239,35.915483 97.5974065,36.1271854 97.4174595,36.3388879 L96.8882034,36.9422398 L96.6659158,37.2068679 C95.8410834,38.1750501 94.4341585,38.398602 93.3498501,37.7337706 C92.2655418,37.0689392 91.8266631,35.7136537 92.3154306,34.5394171 L92.347186,34.5182469 Z" fill="#33213A"/>
        <path d="M97.3857041,122.459394 L79.856742,122.459394 C77.2216665,122.4599 74.7754128,123.827135 73.3943765,126.071319 C72.0133402,128.315503 71.8951936,131.115418 73.0822639,133.467968 L75.7602998,138.760529 C78.2136481,143.613369 83.1887791,146.672963 88.6265156,146.672963 C94.0642522,146.672963 99.0393832,143.613369 101.492731,138.760529 L104.170767,133.467968 C105.36516,131.114249 105.248995,128.30866 103.864112,126.061736 C102.479229,123.814812 100.025114,122.45021 97.3857041,122.459394 L97.3857041,122.459394 Z" fill="#F9E100"/>
        <circle fill="#FFFFFF" cx="124.928192" cy="107.18511" r="33.5971773"/>
        <circle fill="#33213A" cx="124.928192" cy="107.18511" r="16.9044399"/>
        <ellipse fill="#FFFFFF" cx="52.1343074" cy="107.18511" rx="33.4066451" ry="33.5971773"/>
        <path d="M45.6350425,131.753178 L35.5791766,121.697312 L50.0913789,107.18511 L35.5791766,92.6834924 L45.6350425,82.6276265 L62.5712378,99.5638217 C66.7498951,103.75662 66.7498951,110.539503 62.5712378,114.732302 L45.6350425,131.753178 Z" fill="#33213A"/>
      </g>
    </g>
  </g>
</svg>